{
    "streams": [
        {
            "index": 0,
            "codec_name": "h264",
            "codec_long_name": "H.264 / AVC / MPEG-4 AVC / MPEG-4 part 10",
            "profile": "Main",
            "codec_type": "video",
            "codec_tag_string": "avc1",
            "codec_tag": "0x31637661",
            "mime_codec_string": "avc1.4d400c",
            "width": 320,
            "height": 176,
            "coded_width": 320,
            "coded_height": 176,
            "has_b_frames": 2,
            "pix_fmt": "yuv420p",
            "level": 12,
            "color_range": "tv",
            "color_space": "smpte170m",
            "color_transfer": "bt709",
            "color_primaries": "smpte170m",
            "chroma_location": "left",
            "field_order": "progressive",
            "is_avc": "true",
            "nal_length_size": "4",
            "id": "0x1",
            "r_frame_rate": "25/1",
            "avg_frame_rate": "25/1",
            "time_base": "1/90000",
            "start_pts": 0,
            "start_time": "0.000000",
            "duration_ts": 900000,
            "duration": "10.000000",
            "bit_rate": "300570",
            "bits_per_raw_sample": "8",
            "nb_frames": "250",
            "extradata_size": 41,
            "disposition": {
                "default": 1,
                "dub": 0,
                "original": 0,
                "comment": 0,
                "lyrics": 0,
                "karaoke": 0,
                "forced": 0,
                "hearing_impaired": 0,
                "visual_impaired": 0,
                "clean_effects": 0,
                "attached_pic": 0,
                "timed_thumbnails": 0,
                "non_diegetic": 0,
                "captions": 0,
                "descriptions": 0,
                "metadata": 0,
                "dependent": 0,
                "still_image": 0,
                "multilayer": 0
            },
            "tags": {
                "creation_time": "2012-03-13T08:58:06.000000Z",
                "language": "und",
                "encoder": "JVT/AVC Coding"
            }
        },
        {
            "index": 1,
            "codec_name": "aac",
            "codec_long_name": "AAC (Advanced Audio Coding)",
            "profile": "LC",
            "codec_type": "audio",
            "codec_tag_string": "mp4a",
            "codec_tag": "0x6134706d",
            "mime_codec_string": "mp4a.40.2",
            "sample_fmt": "fltp",
            "sample_rate": "48000",
            "channels": 2,
            "channel_layout": "stereo",
            "bits_per_sample": 0,
            "initial_padding": 0,
            "id": "0x2",
            "r_frame_rate": "0/0",
            "avg_frame_rate": "0/0",
            "time_base": "1/48000",
            "start_pts": 0,
            "start_time": "0.000000",
            "duration_ts": 481280,
            "duration": "10.026667",
            "bit_rate": "160545",
            "nb_frames": "470",
            "extradata_size": 2,
            "disposition": {
                "default": 1,
                "dub": 0,
                "original": 0,
                "comment": 0,
                "lyrics": 0,
                "karaoke": 0,
                "forced": 0,
                "hearing_impaired": 0,
                "visual_impaired": 0,
                "clean_effects": 0,
                "attached_pic": 0,
                "timed_thumbnails": 0,
                "non_diegetic": 0,
                "captions": 0,
                "descriptions": 0,
                "metadata": 0,
                "dependent": 0,
                "still_image": 0,
                "multilayer": 0
            },
            "tags": {
                "creation_time": "2012-03-13T08:58:06.000000Z",
                "language": "und",
                "name": "Stereo"
            }
        },
        {
            "index": 2,
            "codec_name": "aac",
            "codec_long_name": "AAC (Advanced Audio Coding)",
            "profile": "LC",
            "codec_type": "audio",
            "codec_tag_string": "mp4a",
            "codec_tag": "0x6134706d",
            "mime_codec_string": "mp4a.40.2",
            "sample_fmt": "fltp",
            "sample_rate": "48000",
            "channels": 2,
            "channel_layout": "stereo",
            "bits_per_sample": 0,
            "initial_padding": 0,
            "id": "0x3",
            "r_frame_rate": "0/0",
            "avg_frame_rate": "0/0",
            "time_base": "1/48000",
            "start_pts": 0,
            "start_time": "0.000000",
            "duration_ts": 481280,
            "duration": "10.026667",
            "bit_rate": "160580",
            "nb_frames": "470",
            "extradata_size": 2,
            "disposition": {
                "default": 0,
                "dub": 0,
                "original": 0,
                "comment": 0,
                "lyrics": 0,
                "karaoke": 0,
                "forced": 0,
                "hearing_impaired": 0,
                "visual_impaired": 0,
                "clean_effects": 0,
                "attached_pic": 0,
                "timed_thumbnails": 0,
                "non_diegetic": 0,
                "captions": 0,
                "descriptions": 0,
                "metadata": 0,
                "dependent": 0,
                "still_image": 0,
                "multilayer": 0
            },
            "tags": {
                "creation_time": "2012-03-13T08:58:06.000000Z",
                "language": "und",
                "name": "Stereo"
            }
        },
        {
            "index": 3,
            "codec_name": "bin_data",
            "codec_long_name": "binary data",
            "codec_type": "data",
            "codec_tag_string": "text",
            "codec_tag": "0x74786574",
            "id": "0x4",
            "r_frame_rate": "0/0",
            "avg_frame_rate": "0/0",
            "time_base": "1/90000",
            "start_pts": 0,
            "start_time": "0.000000",
            "duration_ts": 900000,
            "duration": "10.000000",
            "bit_rate": "18",
            "nb_frames": "1",
            "extradata_size": 43,
            "disposition": {
                "default": 0,
                "dub": 0,
                "original": 0,
                "comment": 0,
                "lyrics": 0,
                "karaoke": 0,
                "forced": 0,
                "hearing_impaired": 0,
                "visual_impaired": 0,
                "clean_effects": 0,
                "attached_pic": 0,
                "timed_thumbnails": 0,
                "non_diegetic": 0,
                "captions": 0,
                "descriptions": 0,
                "metadata": 0,
                "dependent": 0,
                "still_image": 0,
                "multilayer": 0
            },
            "tags": {
                "creation_time": "2012-03-13T08:58:06.000000Z",
                "language": "und"
            }
        }
    ],
    "format": {
        "filename": "C:\\Users\\Anda\\Desktop\\An III\\Sem II\\SD\\Assignment2\\sample.mp4",
        "nb_streams": 4,
        "nb_programs": 0,
        "nb_stream_groups": 0,
        "format_name": "mov,mp4,m4a,3gp,3g2,mj2",
        "format_long_name": "QuickTime / MOV",
        "start_time": "0.000000",
        "duration": "10.026667",
        "size": "788493",
        "bit_rate": "629116",
        "probe_score": 100,
        "tags": {
            "major_brand": "mp42",
            "minor_version": "0",
            "compatible_brands": "mp42isomavc1",
            "creation_time": "2012-03-13T08:58:06.000000Z",
            "encoder": "HandBrake 0.9.6 2012022800"
        }
    }
}
